<svg id="spider-code" xmlns="http://www.w3.org/2000/svg" width="1200" height="600" viewBox="0 0 1200 600">
  <defs>
    <style>
      .code-color {
        fill: #ffffff;
      }

      .mask-color {
        fill: #ff030f;
      }
.eyes-mask-color {
        fill: #000000;
      }
      .eyes-color {
        fill: #ffffff;
      }
    </style>
  </defs>
  <g id="code">
    <path id="_" data-name="&gt;" class="code-color" d="M888,194l303,193q-4.5,28.5-9,57L832,528l10-61q136.986-31.5,274-63Q997.005,329.507,878,255Z"/>
    <path id="_2" data-name="/" class="code-color" d="M837,28q-38,262.974-76,526l-50,6q39.5-262.974,79-526Z"/>
    <path id="_3" data-name="&lt;" class="code-color" d="M368,186q-2,31-4,62L92,321,337,462q-4.5,30.5-9,61L17,340l8-58Z"/>
  </g>
  <g id="face">
    <path id="face-base" class="eyes-mask-color" d="M550.856,84.8c51.561-.712,92.993,13.07,117.29,44.824,89.119,116.466,10.607,413.144-106.308,428.431C449.862,572.7,378.72,318.094,416.872,183.31,437.874,109.115,482.916,102.981,550.856,84.8Z"/>
    <path id="face-color" class="mask-color" d="M551.295,96.79c41.9-.572,76.617,8.309,100.158,29.708,105.941,96.3,22.7,401.536-91.372,417.486C456.6,558.453,388.789,308.183,428.294,184.352,451.428,111.838,492.528,123.859,551.295,96.79Z"/>
    <g id="eyes">
      <g id="eye-right">
        <path id="eye-r-mask" class="code-color" d="M638.962,143.813c2.433,1.322,4.36,6.048,5.847,8.9,2.057,3.947,5,7.38,7.016,11.445,29.234,58.808,26.6,104.245,26.6,111.057,1.3,8.885,1.346,33.107,0,41.964,0,7.4-2.668,41.224-2.339,32.639-6.371,37.458-21.615,77.31-44.143,91.135-4.141,2.541-11.845,5.231-16.956,2.12-4.377-2.665-11.285-11.963-11.985-12.717-3.606-3.882-14.617-28.474-13.156-25.009,1.426,3.38-10.069-20.225-15.2-37.3-6.122-20.369-9.2-46.488-11.4-72.484h0.293v-0.423h0.292v0.423c1.4,2.308,1.281,6.489,3.508,7.63a1.243,1.243,0,0,0,.877.424,13.681,13.681,0,0,0,.877-1.271c2.274-4.453,2.167-16.088,3.508-22.042,12.185-54.1,15.588-50.737,19.587-55.1,3.569-3.9,6.82-8.95,10.524-12.716,0.88-.9,16.29-14.064,20.172-21.618,1.566-3.05,2.518-6.651,4.092-9.75C632.355,170.526,637.554,160.4,638.962,143.813Z"/>
        <path id="eye-r-glasses" class="eyes-color" d="M648.317,207.819h0.877a282.364,282.364,0,0,1,13.74,49.594c3.71,19.912.253,55.39,0.585,45.779-1.267,7.832-1.516,16.256-3.216,23.738C640.8,412.8,611.6,395.916,617.037,398.142c-6.826-2.793-11.112-9.422-16.079-14.836-25.952-28.289-23.94-73.16-21.048-85.624,1.222-5.267,4.238-8.779,6.139-13.141,12.284-28.193,17.826-34.964,17.248-34.334C617.527,234.7,649.761,204.821,648.317,207.819Z"/>
      </g>
      <g id="eye-left">
        <path id="eye-l-mask" class="code-color" d="M473.951,143.813c-2.431,1.322-4.356,6.045-5.841,8.9-2.054,3.945-4.99,7.377-7.009,11.44-29.2,58.785-26.575,104.2-26.575,111.013-1.3,8.881-1.345,33.094,0,41.948,0,7.4,2.664,41.207,2.336,32.626,6.365,37.443,21.593,77.278,44.1,91.1,4.137,2.541,11.832,5.229,16.938,2.119,4.373-2.663,11.274-11.958,11.974-12.712,3.6-3.88,14.6-28.463,13.142-25-1.424,3.379,10.059-20.217,15.186-37.287,6.116-20.361,9.19-46.469,11.389-72.455H549.3v-0.423h-0.292V295.5c-1.4,2.307-1.279,6.486-3.5,7.627a1.238,1.238,0,0,1-.876.424,13.873,13.873,0,0,1-.876-1.271c-2.272-4.451-2.165-16.082-3.5-22.033-12.172-54.082-15.571-50.717-19.567-55.083-3.565-3.9-6.813-8.947-10.513-12.712-0.879-.894-16.274-14.058-20.151-21.609-1.565-3.048-2.516-6.648-4.088-9.746C480.552,170.515,475.358,160.4,473.951,143.813Z"/>
        <path id="eye-l-glasses" class="eyes-color" d="M464.38,207.819H463.5a282.113,282.113,0,0,0-13.762,49.6c-3.715,19.913-.253,55.393-0.585,45.782,1.268,7.832,1.518,16.257,3.221,23.739,19.536,85.878,48.783,68.991,43.334,71.217,6.837-2.793,11.13-9.423,16.1-14.837,25.994-28.291,23.978-73.165,21.082-85.63-1.224-5.267-4.246-8.779-6.149-13.141-12.3-28.2-17.855-34.967-17.275-34.337C495.219,234.7,462.935,204.821,464.38,207.819Z"/>
      </g>
    </g>
  </g>
</svg>
